<svg width="40" height="40" viewBox="0 0 40 40" fill="none" xmlns="http://www.w3.org/2000/svg">
<path d="M20 3.75C16.7861 3.75 13.6443 4.70305 10.972 6.48862C8.29969 8.27419 6.21689 10.8121 4.98696 13.7814C3.75704 16.7507 3.43524 20.018 4.06225 23.1702C4.68926 26.3224 6.23692 29.2179 8.50952 31.4905C10.7821 33.7631 13.6776 35.3108 16.8298 35.9378C19.982 36.5648 23.2493 36.243 26.2186 35.013C29.1879 33.7831 31.7258 31.7003 33.5114 29.028C35.297 26.3557 36.25 23.2139 36.25 20C36.2455 15.6916 34.5319 11.561 31.4855 8.51454C28.439 5.46806 24.3084 3.75455 20 3.75ZM24.6344 20.8844L18.3844 27.1344C18.2682 27.2505 18.1304 27.3426 17.9786 27.4055C17.8269 27.4683 17.6643 27.5007 17.5 27.5007C17.3358 27.5007 17.1731 27.4683 17.0214 27.4055C16.8696 27.3426 16.7318 27.2505 16.6156 27.1344C16.4995 27.0182 16.4074 26.8804 16.3445 26.7286C16.2817 26.5769 16.2493 26.4142 16.2493 26.25C16.2493 26.0858 16.2817 25.9231 16.3445 25.7714C16.4074 25.6196 16.4995 25.4818 16.6156 25.3656L21.9828 20L16.6156 14.6344C16.3811 14.3998 16.2493 14.0817 16.2493 13.75C16.2493 13.4183 16.3811 13.1002 16.6156 12.8656C16.8502 12.6311 17.1683 12.4993 17.5 12.4993C17.8317 12.4993 18.1498 12.6311 18.3844 12.8656L24.6344 19.1156C24.7506 19.2317 24.8428 19.3696 24.9057 19.5213C24.9686 19.6731 25.001 19.8357 25.001 20C25.001 20.1643 24.9686 20.3269 24.9057 20.4787C24.8428 20.6304 24.7506 20.7683 24.6344 20.8844Z" fill="white"/>
</svg>
