<svg width="77" height="81" viewBox="0 0 77 81" fill="none" xmlns="http://www.w3.org/2000/svg">
<g clip-path="url(#clip0_527_491)">
<path d="M12.4088 47.5728L2.78491 50.9592C4.09819 55.9368 6.39643 60.486 9.47443 64.4232L15.5278 55.3452C14.112 52.9584 13.0449 50.3472 12.4088 47.5728Z" fill="white"/>
<path d="M11.7053 41.2387C11.7053 37.6483 12.4029 34.2211 13.6752 31.0795L4.9747 25.6123C2.75854 30.3655 1.52734 35.6695 1.52734 41.2591C1.52734 42.6259 1.60942 43.9519 1.75306 45.2779L11.7053 41.7691C11.7053 41.5855 11.7053 41.4019 11.7053 41.2387Z" fill="#C1E865"/>
<path d="M27.3048 16.4323L27.2227 5.55908C19.1789 8.27228 12.3457 13.6171 7.76978 20.5735L16.3677 25.9795C19.0763 21.8995 22.852 18.5743 27.3048 16.4323Z" fill="white"/>
<path d="M39.5957 13.617C40.8269 13.617 42.0376 13.6986 43.2072 13.8618L49.2606 4.76344C46.1621 3.94744 42.92 3.51904 39.5752 3.51904C37.3385 3.51904 35.1224 3.72304 32.9883 4.09024L33.0704 14.3922C35.1839 13.8822 37.359 13.617 39.5957 13.617Z" fill="#FFBF51"/>
<path d="M67.4338 41.3407C67.4338 46.5427 65.9769 51.3979 63.4324 55.5391L72.0303 60.9451C75.5597 55.2331 77.6117 48.5215 77.6117 41.3407C77.6117 35.8327 76.4215 30.6103 74.2669 25.8979L64.6431 29.2843C66.4283 32.9155 67.4338 37.0159 67.4338 41.3407Z" fill="#C1E865"/>
<path d="M39.7346 68.9521C37.6415 68.9521 35.5895 68.7073 33.6196 68.2789L33.7017 78.5809C35.6716 78.8869 37.6826 79.0705 39.7346 79.0705C51.3079 79.0705 61.65 73.8889 68.5447 65.7085L59.8647 60.2209C54.8373 65.6065 47.6758 68.9521 39.7346 68.9521Z" fill="white"/>
<path d="M61.4949 24.2046L71.4471 20.6958C67.4457 14.5554 61.7001 9.65942 54.8874 6.70142L49.1418 15.3102C54.0666 17.0646 58.3348 20.1858 61.4949 24.2046Z" fill="white"/>
<path d="M19.1572 60.1699L13.4116 68.7787C17.4541 72.5935 22.3378 75.5311 27.7756 77.2651L27.6935 66.3919C24.4514 64.8823 21.5581 62.7607 19.1572 60.1699Z" fill="#FFBF51"/>
<path d="M32.0525 51.8976C37.9342 51.8976 42.7023 47.1574 42.7023 41.31C42.7023 35.4626 37.9342 30.7224 32.0525 30.7224C26.1707 30.7224 21.4026 35.4626 21.4026 41.31C21.4026 47.1574 26.1707 51.8976 32.0525 51.8976Z" fill="white"/>
</g>
<defs>
<clipPath id="clip0_527_491">
<rect width="77" height="81" fill="white"/>
</clipPath>
</defs>
</svg>
