<svg width="14" height="15" viewBox="0 0 14 15" fill="none" xmlns="http://www.w3.org/2000/svg">
<g clip-path="url(#clip0_527_544)">
<path d="M11.6129 1.47423L1.18413 11.903C0.77272 12.3144 0.77272 12.9815 1.18413 13.3929L1.18413 13.3929C1.59553 13.8043 2.26255 13.8043 2.67396 13.3929L13.1028 2.96406C13.5142 2.55266 13.5142 1.88564 13.1028 1.47423C12.6914 1.06282 12.0243 1.06282 11.6129 1.47423Z" fill="#9095A0"/>
<path d="M11.6126 7.43353L7.14311 11.903C6.7317 12.3144 6.7317 12.9815 7.14311 13.3929L7.14311 13.3929C7.55452 13.8043 8.22154 13.8043 8.63295 13.3929L13.1024 8.92337C13.5139 8.51196 13.5139 7.84494 13.1024 7.43353C12.691 7.02213 12.024 7.02213 11.6126 7.43353Z" fill="#9095A0"/>
</g>
<defs>
<clipPath id="clip0_527_544">
<rect width="13.4085" height="13.4085" fill="white" transform="translate(0.439209 0.729248)"/>
</clipPath>
</defs>
</svg>
